<svg version="1.2" xmlns="http://www.w3.org/2000/svg" viewBox="0 0 620 200" width="620" height="200">
&#x9;
&#x9;<g id="Layer 1">
&#x9;&#x9;<path id="&lt;Compound Path&gt;" class="s0" d="m161.48 99.63l11.87-0.04 0.1 31.22-11.86 0.04zm11.83-10.45l35.58-0.12 0.04 10.41-35.59 0.12zm0.14 41.62l35.59-0.12 0.03 10.27-35.59 0.12zm35.49-31.34l11.86-0.04 0.04 10.41-11.87 0.04zm0.07 20.81l11.86-0.04 0.04 10.41-11.86 0.03z"></path>
&#x9;&#x9;<path id="&lt;Compound Path&gt;" class="s0" d="m560.67 89.26l11.87-0.04 0.03 10.41-11.86 0.04zm11.9 10.36l11.86-0.04 0.03 10.41-11.86 0.04zm11.9 10.37l11.86-0.04 0.11 31.07-11.87 0.04zm11.83-10.44l11.86-0.04 0.04 10.41-11.86 0.03zm11.82-10.44l11.87-0.04 0.03 10.41-11.86 0.04z"></path>
&#x9;&#x9;<path id="&lt;Compound Path&gt;" class="s0" d="m232.8 89.27h11.86v20.81h35.59v-20.81h11.87v51.89h-11.87v-20.67h-35.59v20.67h-11.86z"></path>
&#x9;&#x9;<path id="&lt;Compound Path&gt;" class="s0" d="m89.94 99.86h11.87v10.41h35.59v-10.41h11.86v41.49h-11.86v-20.68h-35.59v20.68h-11.87zm11.87-10.41h35.59v10.41h-35.59z"></path>
&#x9;&#x9;<path id="&lt;Compound Path&gt;" class="s0" d="m303.38 89.12h35.52v10.41h-11.93v31.22h11.93v10.26h-35.52v-10.26h11.72v-31.22h-11.72z"></path>
&#x9;&#x9;<path id="&lt;Compound Path&gt;" class="s0" d="m350.76 89.46h11.86v10.4h11.86v10.41h-11.86v31.08h-11.86zm23.72 20.81h11.87v10.41h-11.87zm23.73-20.82h11.86v51.89h-11.86v-10.26h-11.86v-10.41h11.86z"></path>
&#x9;&#x9;<path id="&lt;Compound Path&gt;" class="s0" d="m433.8 110.26v-10.4h-11.86v31.22h11.86v-10.4h35.58v-10.42zm0 20.82v10.26h47.46v-10.26zm0-41.62v10.4h47.46v-10.4z"></path>
&#x9;&#x9;<path id="&lt;Compound Path&gt;" class="s0" d="m493.11 89.46h47.46v10.4h-35.59v10.41h35.59v10.4h-35.59v20.68h-11.87zm47.46 10.4h11.86v10.41h-11.86zm0 20.81h11.86v20.67h-11.86z"></path>
&#x9;&#x9;<g id="&lt;Group&gt;">
&#x9;&#x9;&#x9;<path id="&lt;Path&gt;" class="s0" d="m0.13 58.45h15.18v83.82h-15.18z"></path>
&#x9;&#x9;&#x9;<path id="&lt;Path&gt;" class="s0" d="m30.49 90.36h15.18v51.91h-15.18z"></path>
&#x9;&#x9;&#x9;<path id="&lt;Path&gt;" class="s0" d="m60.85 58.45h15.18v83.82h-15.18z"></path>
&#x9;&#x9;</g>
&#x9;</g>
</svg>